<svg width="14" height="14" viewBox="0 0 14 14" fill="none" xmlns="http://www.w3.org/2000/svg">
<path d="M8.12019 5.56101H7.54019V4.98101C7.54019 4.82718 7.47908 4.67966 7.37031 4.57089C7.26154 4.46212 7.11402 4.40101 6.96019 4.40101C6.80637 4.40101 6.65884 4.46212 6.55007 4.57089C6.4413 4.67966 6.38019 4.82718 6.38019 4.98101V5.56101H5.80019C5.64637 5.56101 5.49884 5.62212 5.39007 5.73089C5.2813 5.83966 5.22019 5.98719 5.22019 6.14101C5.22019 6.29484 5.2813 6.44236 5.39007 6.55113C5.49884 6.6599 5.64637 6.72101 5.80019 6.72101H6.38019V7.30101C6.38019 7.45484 6.4413 7.60236 6.55007 7.71113C6.65884 7.8199 6.80637 7.88101 6.96019 7.88101C7.11402 7.88101 7.26154 7.8199 7.37031 7.71113C7.47908 7.60236 7.54019 7.45484 7.54019 7.30101V6.72101H8.12019C8.27402 6.72101 8.42154 6.6599 8.53031 6.55113C8.63908 6.44236 8.70019 6.29484 8.70019 6.14101C8.70019 5.98719 8.63908 5.83966 8.53031 5.73089C8.42154 5.62212 8.27402 5.56101 8.12019 5.56101ZM11.867 5.66541C11.7918 4.87767 11.5281 4.11961 11.0982 3.45528C10.6682 2.79095 10.0847 2.23987 9.39684 1.84862C8.70901 1.45737 7.93711 1.23743 7.14636 1.20741C6.35561 1.17738 5.56925 1.33814 4.85374 1.67611C4.13822 2.01408 3.51457 2.51931 3.03549 3.14913C2.55641 3.77894 2.23597 4.51483 2.10126 5.29459C1.96655 6.07436 2.02152 6.8751 2.26153 7.62914C2.50154 8.38319 2.91953 9.06838 3.48019 9.62681L6.55419 12.7066C6.60811 12.761 6.67226 12.8041 6.74294 12.8336C6.81362 12.863 6.88942 12.8782 6.96599 12.8782C7.04256 12.8782 7.11837 12.863 7.18905 12.8336C7.25972 12.8041 7.32387 12.761 7.37779 12.7066L10.4402 9.62681C10.9571 9.11378 11.3533 8.49212 11.6001 7.80693C11.8469 7.12174 11.9381 6.39021 11.867 5.66541ZM9.62819 8.80901L6.96019 11.477L4.29219 8.80901C3.899 8.4158 3.59782 7.94036 3.41028 7.41687C3.22275 6.89338 3.15353 6.33484 3.20759 5.78141C3.26201 5.21945 3.44061 4.6766 3.7305 4.19212C4.02039 3.70763 4.41431 3.29362 4.88379 2.98001C5.49914 2.57125 6.22145 2.3532 6.96019 2.3532C7.69893 2.3532 8.42124 2.57125 9.03659 2.98001C9.50464 3.29241 9.8977 3.70459 10.1875 4.18695C10.4773 4.66932 10.6567 5.20988 10.7128 5.76981C10.7686 6.32512 10.7003 6.88589 10.5127 7.41153C10.3251 7.93717 10.023 8.41451 9.62819 8.80901Z" fill="#232323"/>
</svg>
