<svg width="13" height="13" viewBox="0 0 13 13" fill="none" xmlns="http://www.w3.org/2000/svg">
<path d="M1 2H10.5L11 3V7L10.5 9.5L3 10L1 11.5V2Z" fill="white"/>
<path d="M3.7915 3.79165H9.20817C9.35183 3.79165 9.4896 3.84871 9.59119 3.9503C9.69277 4.05188 9.74984 4.18965 9.74984 4.33331C9.74984 4.47697 9.69277 4.61475 9.59119 4.71633C9.4896 4.81791 9.35183 4.87498 9.20817 4.87498H3.7915C3.64784 4.87498 3.51007 4.81791 3.40849 4.71633C3.3069 4.61475 3.24984 4.47697 3.24984 4.33331C3.24984 4.18965 3.3069 4.05188 3.40849 3.9503C3.51007 3.84871 3.64784 3.79165 3.7915 3.79165ZM3.7915 5.95831H9.20817C9.35183 5.95831 9.4896 6.01538 9.59119 6.11696C9.69277 6.21855 9.74984 6.35632 9.74984 6.49998C9.74984 6.64364 9.69277 6.78141 9.59119 6.883C9.4896 6.98458 9.35183 7.04165 9.20817 7.04165H3.7915C3.64784 7.04165 3.51007 6.98458 3.40849 6.883C3.3069 6.78141 3.24984 6.64364 3.24984 6.49998C3.24984 6.35632 3.3069 6.21855 3.40849 6.11696C3.51007 6.01538 3.64784 5.95831 3.7915 5.95831ZM2.70817 1.08331H10.2915C10.7225 1.08331 11.1358 1.25452 11.4406 1.55926C11.7453 1.86401 11.9165 2.27734 11.9165 2.70831V8.12498C11.9165 8.55596 11.7453 8.96928 11.4406 9.27403C11.1358 9.57878 10.7225 9.74998 10.2915 9.74998H4.01359L2.00942 11.7596C1.95881 11.8098 1.89878 11.8495 1.83279 11.8764C1.76679 11.9034 1.69612 11.9171 1.62484 11.9166C1.55378 11.9185 1.48329 11.9036 1.419 11.8733C1.32009 11.8327 1.23541 11.7637 1.17564 11.675C1.11588 11.5863 1.0837 11.4819 1.08317 11.375V2.70831C1.08317 2.27734 1.25437 1.86401 1.55912 1.55926C1.86387 1.25452 2.27719 1.08331 2.70817 1.08331ZM2.1665 10.0696L3.40692 8.82373C3.45753 8.77353 3.51756 8.73381 3.58355 8.70685C3.64955 8.6799 3.72022 8.66623 3.7915 8.66665H10.2915C10.4352 8.66665 10.5729 8.60958 10.6745 8.508C10.7761 8.40641 10.8332 8.26864 10.8332 8.12498V2.70831C10.8332 2.56465 10.7761 2.42688 10.6745 2.3253C10.5729 2.22371 10.4352 2.16665 10.2915 2.16665H2.70817C2.56451 2.16665 2.42674 2.22371 2.32515 2.3253C2.22357 2.42688 2.1665 2.56465 2.1665 2.70831V10.0696Z" fill="#232323"/>
</svg>
