<svg width="439" height="439" viewBox="0 0 439 439" fill="none" xmlns="http://www.w3.org/2000/svg">
<g clip-path="url(#clip0_22_370)">
<path d="M21.0353 88.7115C30.3456 82.9307 41.6639 82.6873 52.2519 82.5352C155.76 82.6873 259.267 82.5352 362.744 82.596C377.379 82.7177 392.531 84.6041 405.188 92.5147C423.535 102.951 435.34 122.453 438.808 142.991V254.47C435.857 278.354 420.127 300.199 398.008 309.905C382.46 317.299 364.813 315.656 348.11 315.96C344.002 327.582 338.252 339.144 327.846 346.355C310.656 359.955 283.942 360.351 266.722 346.538C254.916 338.049 246.549 325.787 235.018 317.025C222.909 313.982 209.887 313.8 198.599 307.867C178.457 298.891 163.853 280.94 155.425 260.92C118.062 260.859 80.6694 261.011 43.3068 260.92C22.5566 261.894 3.60152 245.312 0.680664 224.988V118.62C3.08428 106.45 10.143 94.9792 21.0353 88.7115V88.7115ZM28.9764 120.05C27.4551 140.07 29.0981 160.212 27.9419 180.292C27.8507 194.44 26.7249 208.74 28.7026 222.797C29.3111 229.825 36.6436 234.419 43.3373 233.598C88.2758 233.72 133.214 233.598 178.183 233.598C178.944 251.61 188.132 269.013 203.254 278.993C215.637 288.029 231.397 288.972 246.184 288.364C257.868 299.804 269.034 311.792 280.991 322.927C290.149 331.903 306.792 331.142 315.007 321.284C323.404 312.43 324.469 297.4 315.676 288.394C321.274 288.333 326.873 288.273 332.471 288.242C345.585 288.212 358.667 288.546 371.781 288.242C389.61 288.09 406.344 274.338 410.147 256.965C412.551 243.79 411.76 230.342 411.273 217.077C411.364 193.74 412.582 170.313 410.969 147.007C409.752 129.269 394.813 113.66 377.288 111.135C361.467 108.61 345.463 111.805 329.581 110.314C235.17 109.949 140.699 110.983 46.2885 110.101C39.4124 110.07 30.4064 112.109 28.9764 120.05V120.05Z" fill="#232323"/>
<path d="M248.014 201.132C245.093 173.049 273.267 146.001 301.532 152.512C301.198 156.071 300.863 159.662 300.528 163.252C292.526 165.199 284.159 166.386 276.918 170.432C268.855 174.905 265.174 183.82 260.914 191.487C279.9 192.278 300.133 192.765 315.558 205.513C315.528 192.734 315.65 179.956 315.802 167.177C319.94 166.629 324.078 166.081 328.246 165.564C330.68 184.732 328.428 204.053 329.554 223.312C339.686 214.093 348.327 203.292 359.067 194.773C363.144 191.487 369.533 193.282 370.903 198.546C363.448 212.48 349.818 221.547 339.808 233.504C354.351 233.383 368.894 233.383 383.377 234.843C383.164 238.738 382.951 242.632 382.738 246.527C361.105 247.896 339.412 247.865 317.78 246.648C314.889 234.752 312.972 220.969 302.141 213.393C292.861 205.27 279.839 206.334 268.368 206.03C289.18 233.87 311.664 260.401 332.475 288.24C326.877 288.27 321.278 288.331 315.68 288.392C298.155 266.334 280.813 244.093 263.227 222.064C257.963 215.28 251.787 208.981 248.014 201.132V201.132Z" fill="#232323"/>
</g>
<defs>
<clipPath id="clip0_22_370">
<rect width="438.128" height="438.128" fill="white" transform="translate(0.680664 0.872559)"/>
</clipPath>
</defs>
</svg>
