<svg width="125" height="125" viewBox="0 0 125 125" fill="none" xmlns="http://www.w3.org/2000/svg">
<path d="M62.4998 10.4167C33.854 10.4167 10.4165 33.8542 10.4165 62.5C10.4165 91.1458 33.854 114.583 62.4998 114.583C91.1457 114.583 114.583 91.1458 114.583 62.5C114.583 33.8542 91.1457 10.4167 62.4998 10.4167ZM84.3748 53.6458L59.3748 78.6458C57.2915 80.7292 54.1665 80.7292 52.0832 78.6458L40.6248 67.1875C38.5415 65.1042 38.5415 61.9792 40.6248 59.8958C42.7082 57.8125 45.8332 57.8125 47.9165 59.8958L55.729 67.7083L77.0832 46.3542C79.1665 44.2708 82.2915 44.2708 84.3748 46.3542C86.4582 48.4375 86.4582 51.5625 84.3748 53.6458Z" fill="#49BEFF"/>
</svg>
