<svg width="26" height="26" viewBox="0 0 26 26" fill="none" xmlns="http://www.w3.org/2000/svg">
<path d="M18.4168 9.93392C18.2138 9.73215 17.9392 9.6189 17.653 9.6189C17.3668 9.6189 17.0922 9.73215 16.8893 9.93392L13.0001 13.7689L9.16509 9.93392C8.96211 9.73215 8.68754 9.6189 8.40134 9.6189C8.11514 9.6189 7.84056 9.73215 7.63759 9.93392C7.53605 10.0346 7.45545 10.1544 7.40045 10.2865C7.34545 10.4185 7.31714 10.5601 7.31714 10.7031C7.31714 10.8461 7.34545 10.9877 7.40045 11.1197C7.45545 11.2517 7.53605 11.3715 7.63759 11.4723L12.2309 16.0656C12.3316 16.1671 12.4514 16.2477 12.5835 16.3027C12.7155 16.3577 12.8571 16.386 13.0001 16.386C13.1431 16.386 13.2847 16.3577 13.4167 16.3027C13.5487 16.2477 13.6685 16.1671 13.7693 16.0656L18.4168 11.4723C18.5183 11.3715 18.5989 11.2517 18.6539 11.1197C18.7089 10.9877 18.7372 10.8461 18.7372 10.7031C18.7372 10.5601 18.7089 10.4185 18.6539 10.2865C18.5989 10.1544 18.5183 10.0346 18.4168 9.93392Z" fill="#232323"/>
</svg>
