<svg width="14" height="14" viewBox="0 0 14 14" fill="none" xmlns="http://www.w3.org/2000/svg">
<path d="M5.08067 4.49748L6.4165 3.15581V8.74998C6.4165 8.90469 6.47796 9.05306 6.58736 9.16246C6.69675 9.27185 6.84513 9.33331 6.99984 9.33331C7.15455 9.33331 7.30292 9.27185 7.41232 9.16246C7.52171 9.05306 7.58317 8.90469 7.58317 8.74998V3.15581L8.919 4.49748C8.97323 4.55216 9.03775 4.59555 9.10883 4.62517C9.17992 4.65478 9.25616 4.67003 9.33317 4.67003C9.41018 4.67003 9.48642 4.65478 9.55751 4.62517C9.62859 4.59555 9.69311 4.55216 9.74734 4.49748C9.80201 4.44325 9.84541 4.37873 9.87502 4.30765C9.90464 4.23657 9.91989 4.16032 9.91989 4.08331C9.91989 4.00631 9.90464 3.93006 9.87502 3.85898C9.84541 3.78789 9.80201 3.72338 9.74734 3.66915L7.414 1.33581C7.35853 1.28271 7.29311 1.24108 7.2215 1.21331C7.07949 1.15497 6.92019 1.15497 6.77817 1.21331C6.70657 1.24108 6.64115 1.28271 6.58567 1.33581L4.25234 3.66915C4.19795 3.72354 4.1548 3.78811 4.12537 3.85917C4.09593 3.93023 4.08078 4.0064 4.08078 4.08331C4.08078 4.16023 4.09593 4.2364 4.12537 4.30746C4.1548 4.37852 4.19795 4.44309 4.25234 4.49748C4.30673 4.55187 4.3713 4.59501 4.44236 4.62445C4.51342 4.65388 4.58959 4.66903 4.6665 4.66903C4.74342 4.66903 4.81959 4.65388 4.89065 4.62445C4.96171 4.59501 5.02628 4.55187 5.08067 4.49748ZM12.2498 8.16665C12.0951 8.16665 11.9468 8.2281 11.8374 8.3375C11.728 8.4469 11.6665 8.59527 11.6665 8.74998V11.0833C11.6665 11.238 11.605 11.3864 11.4957 11.4958C11.3863 11.6052 11.2379 11.6666 11.0832 11.6666H2.9165C2.76179 11.6666 2.61342 11.6052 2.50403 11.4958C2.39463 11.3864 2.33317 11.238 2.33317 11.0833V8.74998C2.33317 8.59527 2.27171 8.4469 2.16232 8.3375C2.05292 8.2281 1.90455 8.16665 1.74984 8.16665C1.59513 8.16665 1.44675 8.2281 1.33736 8.3375C1.22796 8.4469 1.1665 8.59527 1.1665 8.74998V11.0833C1.1665 11.5474 1.35088 11.9926 1.67907 12.3208C2.00726 12.6489 2.45238 12.8333 2.9165 12.8333H11.0832C11.5473 12.8333 11.9924 12.6489 12.3206 12.3208C12.6488 11.9926 12.8332 11.5474 12.8332 11.0833V8.74998C12.8332 8.59527 12.7717 8.4469 12.6623 8.3375C12.5529 8.2281 12.4045 8.16665 12.2498 8.16665Z" fill="#232323"/>
</svg>
