<svg width="47" height="47" viewBox="0 0 47 47" fill="none" xmlns="http://www.w3.org/2000/svg">
<path d="M18.0827 13.8498C17.7195 14.2152 17.5156 14.7094 17.5156 15.2245C17.5156 15.7397 17.7195 16.2339 18.0827 16.5993L24.9857 23.5998L18.0827 30.5028C17.7195 30.8682 17.5156 31.3624 17.5156 31.8775C17.5156 32.3927 17.7195 32.8869 18.0827 33.2523C18.2639 33.4351 18.4796 33.5801 18.7172 33.6791C18.9549 33.7781 19.2097 33.8291 19.4672 33.8291C19.7246 33.8291 19.9795 33.7781 20.2171 33.6791C20.4547 33.5801 20.6704 33.4351 20.8517 33.2523L29.1197 24.9843C29.3024 24.803 29.4475 24.5873 29.5465 24.3497C29.6455 24.1121 29.6965 23.8572 29.6965 23.5998C29.6965 23.3424 29.6455 23.0875 29.5465 22.8499C29.4475 22.6122 29.3024 22.3966 29.1197 22.2153L20.8517 13.8498C20.6704 13.667 20.4547 13.522 20.2171 13.423C19.9795 13.324 19.7246 13.273 19.4672 13.273C19.2097 13.273 18.9549 13.324 18.7172 13.423C18.4796 13.522 18.2639 13.667 18.0827 13.8498Z" fill="#232323"/>
</svg>
