<svg width="44" height="44" viewBox="0 0 44 44" fill="none" xmlns="http://www.w3.org/2000/svg">
<g opacity="0.2">
<path d="M39.4587 21.2786C35.8227 12.8366 28.9827 7.59863 21.6027 7.59863C14.2227 7.59863 7.38271 12.8366 3.74671 21.2786C3.64759 21.5057 3.59644 21.7508 3.59644 21.9986C3.59644 22.2464 3.64759 22.4915 3.74671 22.7186C7.38271 31.1606 14.2227 36.3986 21.6027 36.3986C28.9827 36.3986 35.8227 31.1606 39.4587 22.7186C39.5578 22.4915 39.609 22.2464 39.609 21.9986C39.609 21.7508 39.5578 21.5057 39.4587 21.2786ZM21.6027 32.7986C15.8967 32.7986 10.4967 28.6766 7.38271 21.9986C10.4967 15.3206 15.8967 11.1986 21.6027 11.1986C27.3087 11.1986 32.7087 15.3206 35.8227 21.9986C32.7087 28.6766 27.3087 32.7986 21.6027 32.7986ZM21.6027 14.7986C20.1787 14.7986 18.7866 15.2209 17.6026 16.012C16.4186 16.8032 15.4957 17.9277 14.9508 19.2433C14.4058 20.5589 14.2632 22.0066 14.5411 23.4033C14.8189 24.7999 15.5046 26.0829 16.5115 27.0898C17.5185 28.0967 18.8014 28.7825 20.1981 29.0603C21.5947 29.3381 23.0424 29.1955 24.358 28.6506C25.6737 28.1056 26.7981 27.1828 27.5893 25.9987C28.3804 24.8147 28.8027 23.4227 28.8027 21.9986C28.8027 20.0891 28.0441 18.2577 26.6939 16.9075C25.3436 15.5572 23.5123 14.7986 21.6027 14.7986ZM21.6027 25.5986C20.8907 25.5986 20.1947 25.3875 19.6027 24.9919C19.0106 24.5963 18.5492 24.0341 18.2767 23.3763C18.0043 22.7185 17.933 21.9946 18.0719 21.2963C18.2108 20.598 18.5537 19.9565 19.0571 19.453C19.5606 18.9496 20.202 18.6067 20.9004 18.4678C21.5987 18.3289 22.3226 18.4002 22.9804 18.6727C23.6382 18.9451 24.2004 19.4066 24.596 19.9986C24.9916 20.5906 25.2027 21.2866 25.2027 21.9986C25.2027 22.9534 24.8234 23.8691 24.1483 24.5442C23.4732 25.2193 22.5575 25.5986 21.6027 25.5986Z" fill="#535353"/>
<path d="M32.4019 11.1992L10.8019 32.7992" stroke="#535353" stroke-width="4.32" stroke-linecap="round"/>
</g>
</svg>
