<svg width="26" height="26" viewBox="0 0 26 26" fill="none" xmlns="http://www.w3.org/2000/svg">
<path d="M21.4445 8.77778L15.1112 3.22556C14.5306 2.70628 13.779 2.41919 13.0001 2.41919C12.2212 2.41919 11.4696 2.70628 10.889 3.22556L4.55566 8.77778C4.22038 9.07764 3.95283 9.44548 3.77082 9.85682C3.58881 10.2682 3.49652 10.7135 3.5001 11.1633V20.3889C3.5001 21.2287 3.83373 22.0342 4.4276 22.6281C5.02146 23.2219 5.82691 23.5556 6.66677 23.5556H19.3334C20.1733 23.5556 20.9787 23.2219 21.5726 22.6281C22.1665 22.0342 22.5001 21.2287 22.5001 20.3889V11.1528C22.5022 10.7048 22.4092 10.2614 22.2272 9.852C22.0452 9.4426 21.7785 9.07646 21.4445 8.77778ZM15.1112 21.4445H10.889V16.1667C10.889 15.8867 11.0002 15.6182 11.1982 15.4203C11.3961 15.2223 11.6646 15.1111 11.9445 15.1111H14.0557C14.3356 15.1111 14.6041 15.2223 14.802 15.4203C15 15.6182 15.1112 15.8867 15.1112 16.1667V21.4445ZM20.389 20.3889C20.389 20.6688 20.2778 20.9373 20.0798 21.1353C19.8819 21.3332 19.6134 21.4445 19.3334 21.4445H17.2223V16.1667C17.2223 15.3268 16.8887 14.5214 16.2948 13.9275C15.701 13.3336 14.8955 13 14.0557 13H11.9445C11.1047 13 10.2992 13.3336 9.70537 13.9275C9.11151 14.5214 8.77788 15.3268 8.77788 16.1667V21.4445H6.66677C6.38682 21.4445 6.11833 21.3332 5.92038 21.1353C5.72242 20.9373 5.61121 20.6688 5.61121 20.3889V11.1528C5.6114 11.0029 5.6435 10.8548 5.70538 10.7183C5.76727 10.5818 5.85751 10.46 5.9701 10.3611L12.3034 4.81945C12.4961 4.65023 12.7437 4.5569 13.0001 4.5569C13.2565 4.5569 13.5041 4.65023 13.6968 4.81945L20.0301 10.3611C20.1427 10.46 20.2329 10.5818 20.2948 10.7183C20.3567 10.8548 20.3888 11.0029 20.389 11.1528V20.3889Z" fill="#232323"/>
</svg>
