<svg width="439" height="439" viewBox="0 0 439 439" fill="none" xmlns="http://www.w3.org/2000/svg">
<g clip-path="url(#clip0_22_371)">
<path d="M28.3654 96.1652C42.7567 85.0294 61.438 82.2607 79.1457 82.565C184.722 82.7779 290.329 82.2607 395.906 82.8084C416.352 82.2303 434.82 98.082 438.319 118.041V224.804C435.794 244.094 418.421 260.463 398.796 260.798C360.308 261.254 321.759 260.585 283.271 261.072C271.557 293.931 238.545 316.172 203.86 316.203C186.365 332.632 170.209 357.125 143.404 356.547C118.76 358.281 96.975 338.961 90.9203 315.868C74.8861 315.625 58.152 317.267 43.0001 310.848C19.8159 301.659 3.14268 279.083 0.191406 254.439V144.025C2.99056 125.282 12.7267 107.179 28.3654 96.1652V96.1652ZM34.268 129.177C25.8706 141.408 27.6048 157.047 27.4527 171.134C29.0044 197.482 25.7489 223.892 27.9699 250.24C28.6089 270.503 47.138 288.181 67.3406 288.242C80.4235 288.515 93.5065 288.211 106.589 288.242C112.188 288.272 117.786 288.302 123.384 288.363C114.622 297.339 115.565 312.46 124.084 321.223C132.269 331.111 148.82 331.902 158.039 323.018C169.996 311.791 181.223 299.834 192.937 288.363C203.434 288.272 214.326 289.093 224.245 284.986C245.299 277.197 260.421 256.112 260.756 233.597C305.755 233.628 350.754 233.689 395.754 233.597C402.326 234.419 409.902 229.855 410.206 222.796C412.244 192.401 410.115 161.884 411.332 131.459C411.362 123.883 410.449 113.203 401.352 111.256C380.389 107.879 359.061 112.108 337.976 110.1C247.673 111.104 157.461 109.978 67.1884 110.556C53.9837 110.8 41.3572 118.072 34.268 129.177V129.177Z" fill="#232323"/>
<path d="M137.654 152.848C165.828 145.546 194.033 173.446 191.051 201.346C187.461 208.435 181.893 214.186 177.086 220.423C159.074 242.999 141.366 265.787 123.384 288.363C117.786 288.302 112.188 288.272 106.59 288.241C127.37 260.463 149.763 233.901 170.635 206.184C158.435 205.94 144.469 205.514 135.159 214.885C125.575 222.492 124.176 235.24 121.407 246.345C99.6526 247.319 77.7462 249.084 56.0832 246.163C55.9311 242.42 55.8094 238.709 55.6572 234.966C70.1398 232.897 84.7745 233.719 99.3483 233.536C89.247 221.579 75.8598 212.36 67.8883 198.699C69.5008 193.8 75.8598 191.153 79.9672 194.683C90.5249 203.324 99.1962 214.033 109.328 223.191C111.306 204.206 107.746 185.038 110.94 166.113C114.622 166.022 118.273 165.87 121.954 165.718C124.023 178.892 123.537 192.218 123.476 205.514C138.841 192.796 158.982 191.853 177.968 191.549C174.286 184.399 171.031 176.397 164.124 171.711C156.548 166.478 147.147 165.383 138.415 163.314C138.171 159.815 137.897 156.316 137.654 152.848V152.848Z" fill="#232323"/>
</g>
<defs>
<clipPath id="clip0_22_371">
<rect width="438.128" height="438.128" fill="white" transform="translate(0.191406 0.872559)"/>
</clipPath>
</defs>
</svg>
