<svg width="23" height="23" viewBox="0 0 23 23" fill="none" xmlns="http://www.w3.org/2000/svg">
<path d="M13.8862 10.4075C14.2072 9.96564 14.3997 9.44366 14.4425 8.89924C14.4853 8.35482 14.3767 7.80916 14.1288 7.32259C13.8809 6.83602 13.5032 6.42749 13.0376 6.14216C12.5719 5.85683 12.0365 5.70582 11.4904 5.70582C10.9443 5.70582 10.4088 5.85683 9.94316 6.14216C9.47753 6.42749 9.09986 6.83602 8.85192 7.32259C8.60398 7.80916 8.49541 8.35482 8.53823 8.89924C8.58104 9.44366 8.77357 9.96564 9.09453 10.4075C8.68741 10.6669 8.32494 10.9906 8.0212 11.3658C7.94191 11.4684 7.8836 11.5856 7.84961 11.7107C7.81561 11.8358 7.80658 11.9663 7.82304 12.0949C7.83951 12.2235 7.88114 12.3476 7.94556 12.4601C8.00997 12.5726 8.09592 12.6713 8.19849 12.7506C8.30106 12.8299 8.41824 12.8882 8.54334 12.9222C8.66844 12.9562 8.79901 12.9652 8.9276 12.9487C9.05619 12.9323 9.18028 12.8907 9.29278 12.8262C9.40528 12.7618 9.50399 12.6759 9.58328 12.5733C9.81733 12.2758 10.1156 12.0351 10.4558 11.8691C10.796 11.7032 11.1693 11.6163 11.5479 11.615C11.9264 11.6163 12.2997 11.7032 12.6399 11.8691C12.9801 12.0351 13.2784 12.2758 13.5124 12.5733C13.6026 12.6845 13.7166 12.7741 13.846 12.8354C13.9753 12.8968 14.1168 12.9284 14.2599 12.9279C14.4396 12.9271 14.6154 12.8758 14.7673 12.7798C14.9192 12.6839 15.0411 12.5472 15.119 12.3853C15.1969 12.2234 15.2278 12.0429 15.2081 11.8643C15.1884 11.6858 15.1188 11.5163 15.0074 11.3754C14.6901 10.9927 14.3111 10.6656 13.8862 10.4075ZM11.4999 9.70789C11.295 9.70775 11.0946 9.64733 10.9238 9.53416C10.7529 9.42098 10.6191 9.26005 10.5391 9.0714C10.459 8.88275 10.4362 8.67472 10.4735 8.4732C10.5108 8.27169 10.6066 8.0856 10.7488 7.9381C10.8911 7.7906 11.0736 7.68821 11.2737 7.64368C11.4737 7.59915 11.6824 7.61444 11.8738 7.68766C12.0653 7.76088 12.2309 7.88878 12.3502 8.05544C12.4694 8.22211 12.537 8.42017 12.5445 8.62497C12.5497 8.76534 12.5265 8.9053 12.4763 9.0365C12.4261 9.16769 12.35 9.28741 12.2525 9.38851C12.155 9.4896 12.038 9.56999 11.9087 9.62487C11.7794 9.67975 11.6404 9.70798 11.4999 9.70789ZM19.6074 9.22872C19.4729 7.82851 18.978 6.48701 18.1711 5.33484C17.3641 4.18267 16.2725 3.2591 15.0027 2.65407C13.7328 2.04904 12.3278 1.78316 10.9247 1.88233C9.52152 1.9815 8.16795 2.44234 6.99578 3.21997C5.98876 3.89334 5.14337 4.78138 4.52035 5.8203C3.89733 6.85922 3.51214 8.02324 3.39245 9.22872C3.27503 10.4263 3.42568 11.635 3.83344 12.7671C4.24121 13.8993 4.89588 14.9265 5.74995 15.7741L10.8291 20.8629C10.9182 20.9527 11.0242 21.024 11.141 21.0727C11.2578 21.1213 11.383 21.1464 11.5095 21.1464C11.636 21.1464 11.7613 21.1213 11.8781 21.0727C11.9949 21.024 12.1009 20.9527 12.1899 20.8629L17.2499 15.7741C18.104 14.9265 18.7587 13.8993 19.1665 12.7671C19.5742 11.635 19.7249 10.4263 19.6074 9.22872ZM15.9083 14.4229L11.4999 18.8312L7.09161 14.4229C6.44195 13.7732 5.9443 12.9876 5.63444 12.1227C5.32458 11.2577 5.2102 10.3348 5.29953 9.42039C5.38944 8.49186 5.68455 7.59492 6.16354 6.7944C6.64252 5.99389 7.2934 5.30981 8.06911 4.79164C9.08585 4.11624 10.2793 3.75596 11.4999 3.75596C12.7206 3.75596 13.914 4.11624 14.9308 4.79164C15.7041 5.30781 16.3536 5.98886 16.8325 6.78587C17.3113 7.58287 17.6077 8.47605 17.7004 9.40122C17.7926 10.3188 17.6797 11.2453 17.3697 12.1138C17.0598 12.9823 16.5606 13.7711 15.9083 14.4229Z" fill="#232323"/>
</svg>
