<svg width="16" height="16" viewBox="0 0 16 16" fill="none" xmlns="http://www.w3.org/2000/svg">
<path d="M11.9358 2.51276H10.6794V1.88455C10.6794 1.71794 10.6132 1.55816 10.4954 1.44034C10.3776 1.32253 10.2178 1.25635 10.0512 1.25635C9.88461 1.25635 9.72482 1.32253 9.60701 1.44034C9.4892 1.55816 9.42301 1.71794 9.42301 1.88455V2.51276H5.65378V1.88455C5.65378 1.71794 5.5876 1.55816 5.46979 1.44034C5.35198 1.32253 5.19219 1.25635 5.02558 1.25635C4.85897 1.25635 4.69918 1.32253 4.58137 1.44034C4.46356 1.55816 4.39737 1.71794 4.39737 1.88455V2.51276H3.14096C2.64113 2.51276 2.16177 2.71132 1.80834 3.06475C1.4549 3.41818 1.25635 3.89754 1.25635 4.39737V11.9358C1.25635 12.4357 1.4549 12.915 1.80834 13.2685C2.16177 13.6219 2.64113 13.8205 3.14096 13.8205H11.9358C12.4357 13.8205 12.915 13.6219 13.2685 13.2685C13.6219 12.915 13.8205 12.4357 13.8205 11.9358V4.39737C13.8205 3.89754 13.6219 3.41818 13.2685 3.06475C12.915 2.71132 12.4357 2.51276 11.9358 2.51276ZM12.564 11.9358C12.564 12.1024 12.4979 12.2622 12.38 12.38C12.2622 12.4979 12.1024 12.564 11.9358 12.564H3.14096C2.97435 12.564 2.81457 12.4979 2.69676 12.38C2.57894 12.2622 2.51276 12.1024 2.51276 11.9358V7.5384H12.564V11.9358ZM12.564 6.28199H2.51276V4.39737C2.51276 4.23076 2.57894 4.07098 2.69676 3.95317C2.81457 3.83535 2.97435 3.76917 3.14096 3.76917H4.39737V4.39737C4.39737 4.56398 4.46356 4.72377 4.58137 4.84158C4.69918 4.95939 4.85897 5.02558 5.02558 5.02558C5.19219 5.02558 5.35198 4.95939 5.46979 4.84158C5.5876 4.72377 5.65378 4.56398 5.65378 4.39737V3.76917H9.42301V4.39737C9.42301 4.56398 9.4892 4.72377 9.60701 4.84158C9.72482 4.95939 9.88461 5.02558 10.0512 5.02558C10.2178 5.02558 10.3776 4.95939 10.4954 4.84158C10.6132 4.72377 10.6794 4.56398 10.6794 4.39737V3.76917H11.9358C12.1024 3.76917 12.2622 3.83535 12.38 3.95317C12.4979 4.07098 12.564 4.23076 12.564 4.39737V6.28199Z" fill="#232323"/>
</svg>
