<svg width="125" height="125" viewBox="0 0 125 125" fill="none" xmlns="http://www.w3.org/2000/svg">
<path d="M26.042 93.7503H48.1253C48.8108 93.7542 49.4903 93.6228 50.1248 93.3636C50.7594 93.1045 51.3366 92.7225 51.8232 92.2398L87.8649 56.1461L102.657 41.6669C103.145 41.1827 103.532 40.6067 103.797 39.972C104.061 39.3373 104.197 38.6566 104.197 37.969C104.197 37.2814 104.061 36.6007 103.797 35.966C103.532 35.3313 103.145 34.7553 102.657 34.2711L80.5732 11.9273C80.0891 11.4392 79.513 11.0517 78.8783 10.7873C78.2436 10.5229 77.5629 10.3867 76.8753 10.3867C76.1878 10.3867 75.507 10.5229 74.8723 10.7873C74.2376 11.0517 73.6616 11.4392 73.1774 11.9273L58.4899 26.6669L22.3441 62.7607C21.8614 63.2473 21.4795 63.8245 21.2203 64.4591C20.9611 65.0936 20.8297 65.7731 20.8337 66.4586V88.5419C20.8337 89.9233 21.3824 91.248 22.3591 92.2248C23.3359 93.2015 24.6607 93.7503 26.042 93.7503ZM76.8753 22.969L91.6149 37.7086L84.2191 45.1044L69.4795 30.3648L76.8753 22.969ZM31.2503 68.594L62.1357 37.7086L76.8753 52.4482L45.9899 83.3336H31.2503V68.594ZM109.375 104.167H15.6253C14.244 104.167 12.9192 104.716 11.9425 105.692C10.9657 106.669 10.417 107.994 10.417 109.375C10.417 110.757 10.9657 112.081 11.9425 113.058C12.9192 114.035 14.244 114.584 15.6253 114.584H109.375C110.757 114.584 112.081 114.035 113.058 113.058C114.035 112.081 114.584 110.757 114.584 109.375C114.584 107.994 114.035 106.669 113.058 105.692C112.081 104.716 110.757 104.167 109.375 104.167Z" fill="#49BEFF"/>
</svg>
