<svg width="19" height="19" viewBox="0 0 19 19" fill="none" xmlns="http://www.w3.org/2000/svg">
<path d="M15.0415 8.70832H10.2915V3.95832C10.2915 3.74836 10.2081 3.547 10.0596 3.39853C9.91116 3.25006 9.7098 3.16666 9.49984 3.16666C9.28987 3.16666 9.08851 3.25006 8.94004 3.39853C8.79158 3.547 8.70817 3.74836 8.70817 3.95832V8.70832H3.95817C3.74821 8.70832 3.54684 8.79173 3.39838 8.9402C3.24991 9.08866 3.1665 9.29003 3.1665 9.49999C3.1665 9.70995 3.24991 9.91132 3.39838 10.0598C3.54684 10.2082 3.74821 10.2917 3.95817 10.2917H8.70817V15.0417C8.70817 15.2516 8.79158 15.453 8.94004 15.6014C9.08851 15.7499 9.28987 15.8333 9.49984 15.8333C9.7098 15.8333 9.91116 15.7499 10.0596 15.6014C10.2081 15.453 10.2915 15.2516 10.2915 15.0417V10.2917H15.0415C15.2515 10.2917 15.4528 10.2082 15.6013 10.0598C15.7498 9.91132 15.8332 9.70995 15.8332 9.49999C15.8332 9.29003 15.7498 9.08866 15.6013 8.9402C15.4528 8.79173 15.2515 8.70832 15.0415 8.70832Z" fill="#232323"/>
</svg>
