<svg width="66" height="42" viewBox="0 0 66 42" fill="none" xmlns="http://www.w3.org/2000/svg">
<path d="M42.2754 19.2753H33.7254V10.7253C33.7254 10.3474 33.5753 9.98491 33.308 9.71767C33.0408 9.45043 32.6783 9.30029 32.3004 9.30029C31.9225 9.30029 31.56 9.45043 31.2928 9.71767C31.0255 9.98491 30.8754 10.3474 30.8754 10.7253V19.2753H22.3254C21.9475 19.2753 21.585 19.4254 21.3178 19.6927C21.0505 19.9599 20.9004 20.3224 20.9004 20.7003C20.9004 21.0782 21.0505 21.4407 21.3178 21.7079C21.585 21.9752 21.9475 22.1253 22.3254 22.1253H30.8754V30.6753C30.8754 31.0532 31.0255 31.4157 31.2928 31.6829C31.56 31.9502 31.9225 32.1003 32.3004 32.1003C32.6783 32.1003 33.0408 31.9502 33.308 31.6829C33.5753 31.4157 33.7254 31.0532 33.7254 30.6753V22.1253H42.2754C42.6533 22.1253 43.0158 21.9752 43.283 21.7079C43.5503 21.4407 43.7004 21.0782 43.7004 20.7003C43.7004 20.3224 43.5503 19.9599 43.283 19.6927C43.0158 19.4254 42.6533 19.2753 42.2754 19.2753Z" fill="#232323"/>
<rect x="1.70078" y="0.9" width="63" height="39.6" rx="2.7" stroke="#232323" stroke-width="1.8"/>
</svg>
