<svg width="23" height="23" viewBox="0 0 23 23" fill="none" xmlns="http://www.w3.org/2000/svg">
<path d="M19.6458 12.4584C19.3917 12.4584 19.1479 12.5594 18.9682 12.7391C18.7885 12.9188 18.6875 13.1626 18.6875 13.4168V17.2501C18.6875 17.5043 18.5865 17.748 18.4068 17.9277C18.2271 18.1075 17.9833 18.2084 17.7292 18.2084H4.3125C4.05833 18.2084 3.81458 18.1075 3.63486 17.9277C3.45513 17.748 3.35417 17.5043 3.35417 17.2501V8.05968L8.98917 13.7043C9.52703 14.2377 10.2537 14.5374 11.0113 14.538C11.3949 14.539 11.7748 14.4632 12.1286 14.315C12.4825 14.1669 12.8031 13.9495 13.0717 13.6755L13.9246 12.8322C14.0558 12.6471 14.1171 12.4215 14.0976 12.1954C14.0781 11.9694 13.9791 11.7576 13.8181 11.5978C13.6571 11.4379 13.4446 11.3404 13.2184 11.3225C12.9922 11.3046 12.767 11.3675 12.5829 11.5001L11.6917 12.3722C11.5125 12.5478 11.2717 12.6461 11.0208 12.6461C10.77 12.6461 10.5291 12.5478 10.35 12.3722L4.70542 6.70843H9.10417C9.35833 6.70843 9.60209 6.60747 9.78181 6.42774C9.96153 6.24802 10.0625 6.00427 10.0625 5.7501C10.0625 5.49593 9.96153 5.25218 9.78181 5.07246C9.60209 4.89273 9.35833 4.79177 9.10417 4.79177H4.3125C3.55 4.79177 2.81874 5.09467 2.27957 5.63384C1.7404 6.173 1.4375 6.90427 1.4375 7.66677V17.2501C1.4375 18.0126 1.7404 18.7439 2.27957 19.283C2.81874 19.8222 3.55 20.1251 4.3125 20.1251H17.7292C18.4917 20.1251 19.2229 19.8222 19.7621 19.283C20.3013 18.7439 20.6042 18.0126 20.6042 17.2501V13.4168C20.6042 13.1626 20.5032 12.9188 20.3235 12.7391C20.1438 12.5594 19.9 12.4584 19.6458 12.4584ZM20.6521 3.83343C20.1665 3.3653 19.5451 3.06306 18.8771 2.97008C18.209 2.87711 17.5287 2.99818 16.9338 3.31593C16.2781 2.95537 15.5147 2.84286 14.7829 2.99899C14.0512 3.15512 13.4001 3.56945 12.9487 4.1662C12.4974 4.76296 12.2759 5.50224 12.3249 6.24885C12.3739 6.99547 12.69 7.6995 13.2154 8.23218L16.2917 11.2222C16.4753 11.3973 16.7183 11.4966 16.9721 11.5001C17.0982 11.5008 17.2232 11.4767 17.34 11.429C17.4568 11.3813 17.563 11.311 17.6525 11.2222L20.6904 8.18427C21.2509 7.59636 21.5603 6.81329 21.5532 6.00108C21.546 5.18887 21.2228 4.41138 20.6521 3.83343ZM19.3008 6.82343L16.9338 9.19052L14.5763 6.82343C14.4655 6.7108 14.378 6.57745 14.3188 6.43101C14.2596 6.28456 14.2298 6.12789 14.2311 5.96994C14.2338 5.65093 14.3631 5.34606 14.5906 5.12239C14.8181 4.89873 15.1251 4.77459 15.4441 4.77728C15.7631 4.77998 16.068 4.90929 16.2917 5.13677C16.3808 5.22659 16.4868 5.29788 16.6035 5.34654C16.7203 5.39519 16.8456 5.42024 16.9721 5.42024C17.0986 5.42024 17.2239 5.39519 17.3406 5.34654C17.4574 5.29788 17.5634 5.22659 17.6525 5.13677C17.8803 4.92109 18.1821 4.80089 18.4958 4.80089C18.8096 4.80089 19.1113 4.92109 19.3392 5.13677C19.5542 5.36728 19.6706 5.67274 19.6634 5.98791C19.6563 6.30307 19.5261 6.60293 19.3008 6.82343Z" fill="#232323"/>
</svg>
