<svg width="26" height="26" viewBox="0 0 26 26" fill="none" xmlns="http://www.w3.org/2000/svg">
<path d="M20.3893 4.55542H5.61149C4.77164 4.55542 3.96618 4.88905 3.37232 5.48292C2.77845 6.07678 2.44482 6.88223 2.44482 7.72209V18.2776C2.44482 19.1175 2.77845 19.9229 3.37232 20.5168C3.96618 21.1107 4.77164 21.4443 5.61149 21.4443H20.3893C21.2291 21.4443 22.0346 21.1107 22.6284 20.5168C23.2223 19.9229 23.5559 19.1175 23.5559 18.2776V7.72209C23.5559 6.88223 23.2223 6.07678 22.6284 5.48292C22.0346 4.88905 21.2291 4.55542 20.3893 4.55542ZM5.61149 6.66653H20.3893C20.6692 6.66653 20.9377 6.77774 21.1357 6.9757C21.3336 7.17365 21.4448 7.44214 21.4448 7.72209L13.0004 12.8732L4.55593 7.72209C4.55593 7.44214 4.66715 7.17365 4.8651 6.9757C5.06306 6.77774 5.33154 6.66653 5.61149 6.66653ZM21.4448 18.2776C21.4448 18.5576 21.3336 18.8261 21.1357 19.024C20.9377 19.222 20.6692 19.3332 20.3893 19.3332H5.61149C5.33154 19.3332 5.06306 19.222 4.8651 19.024C4.66715 18.8261 4.55593 18.5576 4.55593 18.2776V10.1288L12.4515 14.9526C12.612 15.0453 12.794 15.0941 12.9793 15.0941C13.1646 15.0941 13.3466 15.0453 13.507 14.9526L21.4448 10.1288V18.2776Z" fill="#232323"/>
</svg>
