<!-- inside #ededed-->
<!-- contour #575757 -->
<svg stroke="#575757" stroke-width="2" width="3213" height="858" viewBox="0 0 3213 858" fill="#ededed" xmlns="http://www.w3.org/2000/svg">
<path d="M309.98 166.385H274.492V423.128H253.9L88.726 198.807H86.9735V395.088H132.101V423.128H23.445V395.088H56.3046V166.385H18.6256V138.345H79.9635L242.071 357.847H243.823V166.385H200.887V138.345H309.98V166.385ZM499.611 367.048C496.982 383.696 488.658 398.009 474.638 409.984C460.618 421.668 441.632 427.509 417.681 427.509C390.225 427.509 368.027 418.893 351.086 401.66C334.145 384.427 325.674 360.038 325.674 328.492C325.674 298.116 333.707 273.142 349.771 253.573C365.836 234.003 387.596 224.218 415.052 224.218C441.924 224.218 462.37 232.688 476.39 249.629C490.41 266.57 497.566 286.578 497.859 309.653C497.859 317.247 496.982 324.987 495.23 332.874H358.096C359.848 378.439 380.44 401.222 419.872 401.222C435.352 401.222 447.474 397.57 456.236 390.268C464.999 382.966 470.841 373.327 473.762 361.352L499.611 367.048ZM465.437 310.091C466.898 295.487 463.392 281.759 454.922 268.907C446.744 256.055 433.162 249.629 414.176 249.629C396.067 249.629 382.777 255.617 374.307 267.593C365.836 279.568 360.579 293.734 358.534 310.091H465.437ZM740.9 253.134H709.354V420.499C709.354 451.168 700.884 475.557 683.943 493.666C667.294 511.776 643.781 520.83 613.404 520.83C592.958 520.83 574.557 516.157 558.2 506.81C542.136 497.464 531.475 483.005 526.217 463.436L550.752 451.168C555.718 466.357 564.334 477.31 576.602 484.028C588.869 491.038 601.575 494.543 614.719 494.543C633.412 494.543 648.601 487.971 660.284 474.827C672.26 461.975 678.247 443.428 678.247 419.185V383.258C672.406 394.65 663.935 404.581 652.836 413.051C641.737 421.521 626.986 425.757 608.585 425.757C585.51 425.757 565.795 417.578 549.438 401.222C533.081 384.865 524.903 361.352 524.903 330.683C524.903 304.687 531.913 280.444 545.933 257.954C559.953 235.463 582.005 224.218 612.09 224.218C643.051 224.218 665.103 235.755 678.247 258.83V228.161H740.9V253.134ZM678.247 339.007V305.272C678.247 288.915 672.552 275.771 661.16 265.84C650.061 255.617 636.479 250.506 620.414 250.506C598.508 250.506 582.589 258.392 572.659 274.165C563.02 289.937 558.2 308.046 558.2 328.492C558.2 352.443 563.604 370.261 574.411 381.944C585.51 393.627 599.092 399.469 615.157 399.469C633.85 399.469 648.893 393.043 660.284 380.191C671.675 367.34 677.663 353.612 678.247 339.007ZM921.781 149.736L846.423 195.302L836.784 181.72L904.256 123.887L921.781 149.736ZM950.26 325.425C950.26 354.926 941.497 379.315 923.972 398.593C906.447 417.87 882.642 427.509 852.557 427.509C823.056 427.509 799.836 418.162 782.895 399.469C766.246 380.776 757.921 356.679 757.921 327.178C757.921 298.846 766.1 274.603 782.457 254.449C798.813 234.003 822.764 223.78 854.31 223.78C886.147 223.78 910.098 233.857 926.162 254.011C942.227 273.872 950.26 297.677 950.26 325.425ZM917.838 324.987C917.838 302.789 912.142 284.826 900.751 271.098C889.652 257.078 873.879 250.068 853.433 250.068C832.987 250.068 817.215 257.224 806.116 271.536C795.308 285.848 789.905 303.811 789.905 325.425C789.905 346.748 795.308 364.711 806.116 379.315C816.923 393.919 832.695 401.222 853.433 401.222C874.171 401.222 890.09 394.065 901.189 379.753C912.288 365.149 917.838 346.894 917.838 324.987ZM1147.28 357.409C1144.65 374.35 1136.91 390.268 1124.06 405.165C1111.5 420.061 1091.79 427.509 1064.92 427.509C1038.04 427.509 1016.58 418.893 1000.51 401.66C984.446 384.135 976.414 359.745 976.414 328.492C976.414 301.621 984.008 277.524 999.196 256.201C1014.38 234.879 1037.17 224.218 1067.54 224.218C1080.4 224.218 1092.23 225.678 1103.03 228.599C1113.84 231.52 1124.21 236.778 1134.14 244.372L1141.59 291.252L1116.18 294.318L1108.73 261.459C1097.04 254.157 1083.17 250.506 1067.11 250.506C1046.37 250.506 1031.47 257.954 1022.42 272.85C1013.36 287.746 1008.84 305.71 1008.84 326.74C1008.84 350.107 1013.95 368.362 1024.17 381.506C1034.39 394.65 1049.14 401.222 1068.42 401.222C1097.63 401.222 1115.15 384.719 1121 351.713L1147.28 357.409ZM1201.57 177.776V137.907H1234.87V177.776H1201.57ZM1269.48 423.128H1170.47V398.155H1204.64V253.134H1169.59V228.161H1235.31V398.155H1269.48V423.128ZM1480.34 325.425C1480.34 354.926 1471.58 379.315 1454.06 398.593C1436.53 417.87 1412.73 427.509 1382.64 427.509C1353.14 427.509 1329.92 418.162 1312.98 399.469C1296.33 380.776 1288 356.679 1288 327.178C1288 298.846 1296.18 274.603 1312.54 254.449C1328.9 234.003 1352.85 223.78 1384.39 223.78C1416.23 223.78 1440.18 233.857 1456.25 254.011C1472.31 273.872 1480.34 297.677 1480.34 325.425ZM1447.92 324.987C1447.92 302.789 1442.23 284.826 1430.83 271.098C1419.74 257.078 1403.96 250.068 1383.52 250.068C1363.07 250.068 1347.3 257.224 1336.2 271.536C1325.39 285.848 1319.99 303.811 1319.99 325.425C1319.99 346.748 1325.39 364.711 1336.2 379.315C1347.01 393.919 1362.78 401.222 1383.52 401.222C1404.25 401.222 1420.17 394.065 1431.27 379.753C1442.37 365.149 1447.92 346.894 1447.92 324.987Z" fill="#ededed"/>
<path d="M1749.65 225.628L1697.63 230.191L1688.5 186.379H1610.91V269.44H1735.5V321.012H1610.91V378.972H1659.29V431H1517.81V378.972H1549.76V186.379H1517.81V134.351H1740.53L1749.65 225.628ZM1967.69 366.194C1966.17 384.449 1957.2 400.574 1940.77 414.57C1924.34 428.566 1901.37 435.564 1871.85 435.564C1841.12 435.564 1815.72 426.893 1795.64 409.55C1775.86 392.207 1765.97 366.346 1765.97 331.965C1765.97 300.322 1774.95 274.004 1792.9 253.011C1811.15 231.713 1836.56 221.064 1869.11 221.064C1897.71 221.064 1920.84 229.279 1938.48 245.708C1956.44 262.138 1965.56 283.74 1965.87 310.515C1965.87 320.555 1964.8 330.444 1962.67 340.18H1827.58C1830.93 372.735 1847.06 389.013 1875.96 389.013C1891.78 389.013 1902.43 385.21 1907.91 377.603C1913.69 369.997 1917.19 363.151 1918.4 357.066L1967.69 366.194ZM1905.17 305.951C1906.39 295.606 1904.1 285.87 1898.32 276.743C1892.85 267.615 1883.11 263.051 1869.11 263.051C1856.94 263.051 1847.51 267.006 1840.82 274.917C1834.13 282.828 1829.87 293.172 1828.04 305.951H1905.17ZM2189.22 354.328C2187.09 373.191 2178.88 391.447 2164.58 409.094C2150.58 426.74 2127 435.564 2093.84 435.564C2064.02 435.564 2039.38 426.893 2019.9 409.55C2000.73 392.207 1991.15 366.194 1991.15 331.509C1991.15 294.998 2001.65 267.463 2022.64 248.903C2043.63 230.344 2069.04 221.064 2098.86 221.064C2110.11 221.064 2122.13 222.585 2134.91 225.628C2147.99 228.366 2160.77 233.082 2173.25 239.776L2182.38 302.3L2135.37 307.32L2128.52 273.548C2116.66 269.593 2106.31 267.615 2097.49 267.615C2085.01 267.615 2074.36 272.483 2065.54 282.219C2056.72 291.651 2052.31 307.168 2052.31 328.77C2052.31 368.932 2067.98 389.013 2099.31 389.013C2122.44 389.013 2135.98 374.409 2139.93 345.2L2189.22 354.328ZM2460.18 431H2346.54V386.731H2373.92V315.079C2373.92 297.432 2370.73 284.805 2364.34 277.199C2358.25 269.593 2349.43 265.789 2337.87 265.789C2324.48 265.789 2313.98 269.897 2306.38 278.112C2299.07 286.327 2295.12 297.128 2294.51 310.515V386.731H2321.89V431H2208.25V386.731H2235.64V161.734H2208.25V117.008H2294.51V256.662C2308.2 232.93 2330.26 221.064 2360.69 221.064C2380.16 221.064 2397.04 226.845 2411.34 238.406C2425.64 249.968 2432.79 267.919 2432.79 292.26V386.731H2460.18V431ZM2501.73 239.776C2519.68 232.473 2534.59 227.605 2546.46 225.171C2558.63 222.433 2573.08 221.064 2589.81 221.064C2612.03 221.064 2631.19 226.845 2647.32 238.406C2663.44 249.968 2671.51 267.463 2671.51 290.89V380.341C2671.51 390.99 2676.22 396.315 2685.66 396.315C2688.39 396.315 2691.28 395.859 2694.33 394.946L2694.78 425.98C2682.92 432.369 2670.59 435.564 2657.82 435.564C2630.74 435.564 2615.68 422.024 2612.63 394.946V394.489C2606.85 404.834 2598.49 414.266 2587.53 422.785C2576.88 431.304 2563.19 435.564 2546.46 435.564C2531.55 435.564 2517.25 431.152 2503.56 422.329C2489.87 413.505 2483.02 398.293 2483.02 376.69C2483.02 351.437 2493.06 334.703 2513.14 326.488C2533.53 318.273 2555.43 314.166 2578.86 314.166C2591.94 314.166 2603.2 314.774 2612.63 315.991V309.146C2612.63 298.497 2611.11 288.152 2608.07 278.112C2605.33 268.071 2595.6 263.051 2578.86 263.051C2572.78 263.051 2567.15 263.507 2561.98 264.42C2557.11 265.029 2552.24 266.55 2547.37 268.984L2539.61 298.193L2492.6 293.172L2501.73 239.776ZM2612.63 347.026V344.287C2607.77 343.679 2602.75 343.07 2597.57 342.462C2592.71 341.853 2587.84 341.549 2582.97 341.549C2572.62 341.549 2563.5 343.527 2555.59 347.482C2547.68 351.133 2543.72 358.587 2543.72 369.845C2543.72 376.538 2545.55 382.167 2549.2 386.731C2552.85 391.295 2559.08 393.577 2567.91 393.577C2578.25 393.577 2587.84 389.926 2596.66 382.623C2605.79 375.017 2611.11 363.151 2612.63 347.026ZM2959.88 431H2873.62V392.664C2867.84 404.53 2859.32 414.722 2848.06 423.241C2836.81 431.456 2821.9 435.564 2803.34 435.564C2776.26 435.564 2754.96 426.284 2739.44 407.724C2723.93 389.165 2716.17 363.912 2716.17 331.965C2716.17 301.235 2723.77 275.069 2738.99 253.467C2754.2 231.865 2777.17 221.064 2807.9 221.064C2824.64 221.064 2838.33 224.411 2848.98 231.104C2859.62 237.798 2867.84 246.317 2873.62 256.662V161.734H2832.55V117.008H2932.49V386.731H2959.88V431ZM2873.62 326.945V321.924C2873.62 304.886 2869.06 291.651 2859.93 282.219C2851.11 272.483 2840 267.615 2826.61 267.615C2813.53 267.615 2801.97 272.483 2791.93 282.219C2782.19 291.955 2777.32 307.32 2777.32 328.314C2777.32 348.09 2781.89 363.151 2791.02 373.496C2800.14 383.84 2810.94 389.013 2823.42 389.013C2838.94 389.013 2851.11 382.471 2859.93 369.388C2869.06 356.305 2873.62 342.157 2873.62 326.945ZM3200.53 328.314C3200.53 360.869 3189.88 386.883 3168.59 406.355C3147.29 425.828 3120.21 435.564 3087.35 435.564C3055.71 435.564 3029.85 426.436 3009.77 408.181C2989.99 389.621 2980.1 363.76 2980.1 330.596C2980.1 300.474 2989.23 274.613 3007.48 253.011C3025.74 231.408 3053.43 220.607 3090.55 220.607C3127.66 220.607 3155.2 231.408 3173.15 253.011C3191.41 274.308 3200.53 299.41 3200.53 328.314ZM3139.83 326.488C3139.83 305.495 3134.97 290.13 3125.23 280.394C3115.49 270.657 3103.63 265.789 3089.63 265.789C3074.42 265.789 3062.4 271.266 3053.58 282.219C3045.06 292.868 3040.8 307.929 3040.8 327.401C3040.8 345.048 3044.75 359.956 3052.67 372.127C3060.88 384.297 3073.05 390.382 3089.18 390.382C3104.39 390.382 3116.56 384.753 3125.69 373.496C3135.12 361.934 3139.83 346.265 3139.83 326.488Z" fill="#ededed"/>
<g clip-path="url(#clip0_5_8)">
<path d="M1928.04 507.712C1937.35 501.931 1948.66 501.687 1959.25 501.535C2062.76 501.687 2166.27 501.535 2269.74 501.596C2284.38 501.718 2299.53 503.604 2312.19 511.515C2330.53 521.951 2342.34 541.453 2345.81 561.991V673.47C2342.86 697.354 2327.13 719.199 2305.01 728.905C2289.46 736.299 2271.81 734.656 2255.11 734.96C2251 746.582 2245.25 758.144 2234.85 765.355C2217.66 778.955 2190.94 779.351 2173.72 765.538C2161.92 757.049 2153.55 744.787 2142.02 736.025C2129.91 732.982 2116.89 732.8 2105.6 726.867C2085.46 717.891 2070.85 699.94 2062.42 679.92C2025.06 679.859 1987.67 680.011 1950.31 679.92C1929.56 680.894 1910.6 664.312 1907.68 643.988V537.62C1910.08 525.45 1917.14 513.979 1928.04 507.712ZM1935.98 539.05C1934.46 559.07 1936.1 579.212 1934.94 599.292C1934.85 613.44 1933.72 627.74 1935.7 641.797C1936.31 648.825 1943.64 653.419 1950.34 652.598C1995.28 652.72 2040.21 652.598 2085.18 652.598C2085.94 670.61 2095.13 688.013 2110.25 697.993C2122.64 707.029 2138.4 707.972 2153.18 707.364C2164.87 718.804 2176.03 730.792 2187.99 741.927C2197.15 750.903 2213.79 750.142 2222.01 740.284C2230.4 731.43 2231.47 716.4 2222.68 707.394C2228.27 707.333 2233.87 707.273 2239.47 707.242C2252.58 707.212 2265.67 707.546 2278.78 707.242C2296.61 707.09 2313.34 693.338 2317.15 675.965C2319.55 662.79 2318.76 649.342 2318.27 636.077C2318.36 612.74 2319.58 589.313 2317.97 566.007C2316.75 548.269 2301.81 532.66 2284.29 530.135C2268.47 527.61 2252.46 530.805 2236.58 529.314C2142.17 528.949 2047.7 529.983 1953.29 529.101C1946.41 529.07 1937.41 531.109 1935.98 539.05Z" fill="#ededed"/>
<path d="M2155.01 620.132C2152.09 592.049 2180.27 565.001 2208.53 571.512C2208.2 575.071 2207.86 578.662 2207.53 582.252C2199.53 584.199 2191.16 585.386 2183.92 589.432C2175.86 593.905 2172.17 602.82 2167.91 610.487C2186.9 611.278 2207.13 611.765 2222.56 624.513C2222.53 611.734 2222.65 598.956 2222.8 586.177C2226.94 585.629 2231.08 585.081 2235.25 584.564C2237.68 603.732 2235.43 623.053 2236.55 642.312C2246.69 633.093 2255.33 622.292 2266.07 613.773C2270.14 610.487 2276.53 612.282 2277.9 617.546C2270.45 631.48 2256.82 640.547 2246.81 652.504C2261.35 652.383 2275.89 652.383 2290.38 653.843C2290.16 657.738 2289.95 661.632 2289.74 665.527C2268.11 666.896 2246.41 666.865 2224.78 665.648C2221.89 653.752 2219.97 639.969 2209.14 632.393C2199.86 624.27 2186.84 625.334 2175.37 625.03C2196.18 652.87 2218.66 679.401 2239.48 707.24C2233.88 707.27 2228.28 707.331 2222.68 707.392C2205.16 685.334 2187.81 663.093 2170.23 641.064C2164.96 634.28 2158.79 627.981 2155.01 620.132Z" fill="#ededed"/>
</g>
<g clip-path="url(#clip1_5_8)">
<path d="M2401.37 515.165C2415.76 504.029 2434.44 501.261 2452.15 501.565C2557.72 501.778 2663.33 501.261 2768.91 501.808C2789.35 501.23 2807.82 517.082 2811.32 537.041V643.804C2808.79 663.094 2791.42 679.463 2771.8 679.798C2733.31 680.254 2694.76 679.585 2656.27 680.072C2644.56 712.931 2611.55 735.172 2576.86 735.203C2559.37 751.632 2543.21 776.125 2516.4 775.547C2491.76 777.281 2469.98 757.961 2463.92 734.868C2447.89 734.625 2431.15 736.267 2416 729.848C2392.82 720.659 2376.14 698.083 2373.19 673.439V563.025C2375.99 544.282 2385.73 526.179 2401.37 515.165ZM2407.27 548.177C2398.87 560.408 2400.6 576.047 2400.45 590.134C2402 616.482 2398.75 642.892 2400.97 669.24C2401.61 689.503 2420.14 707.181 2440.34 707.242C2453.42 707.515 2466.51 707.211 2479.59 707.242C2485.19 707.272 2490.79 707.302 2496.38 707.363C2487.62 716.339 2488.57 731.46 2497.08 740.223C2505.27 750.111 2521.82 750.902 2531.04 742.018C2543 730.791 2554.22 718.834 2565.94 707.363C2576.43 707.272 2587.33 708.093 2597.25 703.986C2618.3 696.197 2633.42 675.112 2633.76 652.597C2678.76 652.628 2723.75 652.689 2768.75 652.597C2775.33 653.419 2782.9 648.855 2783.21 641.796C2785.24 611.401 2783.11 580.884 2784.33 550.459C2784.36 542.883 2783.45 532.203 2774.35 530.256C2753.39 526.879 2732.06 531.108 2710.98 529.1C2620.67 530.104 2530.46 528.978 2440.19 529.556C2426.98 529.8 2414.36 537.072 2407.27 548.177Z" fill="#ededed"/>
<path d="M2510.65 571.848C2538.83 564.546 2567.03 592.446 2564.05 620.346C2560.46 627.435 2554.89 633.186 2550.09 639.423C2532.07 661.999 2514.37 684.787 2496.38 707.363C2490.79 707.302 2485.19 707.272 2479.59 707.241C2500.37 679.463 2522.76 652.901 2543.64 625.184C2531.43 624.94 2517.47 624.514 2508.16 633.885C2498.58 641.492 2497.18 654.24 2494.41 665.345C2472.65 666.319 2450.75 668.084 2429.08 665.163C2428.93 661.42 2428.81 657.709 2428.66 653.966C2443.14 651.897 2457.77 652.719 2472.35 652.536C2462.25 640.579 2448.86 631.36 2440.89 617.699C2442.5 612.8 2448.86 610.153 2452.97 613.683C2463.52 622.324 2472.2 633.033 2482.33 642.191C2484.31 623.206 2480.75 604.038 2483.94 585.113C2487.62 585.022 2491.27 584.87 2494.95 584.718C2497.02 597.892 2496.54 611.218 2496.48 624.514C2511.84 611.796 2531.98 610.853 2550.97 610.549C2547.29 603.399 2544.03 595.397 2537.12 590.711C2529.55 585.478 2520.15 584.383 2511.41 582.314C2511.17 578.815 2510.9 575.316 2510.65 571.848Z" fill="#ededed"/>
</g>
<defs>
<clipPath id="clip0_5_8">
<rect stroke="#575757" stroke-width="2" width="438.128" height="438.128" fill="#ededed" transform="translate(1907.68 419.873)"/>
</clipPath>
<clipPath id="clip1_5_8">
<rect  stroke="#575757"
          stroke-width="2" width="438.128" height="438.128" fill="#ededed" transform="translate(2373.19 419.873)"/>
</clipPath>
</defs>
</svg>
