<svg width="23" height="23" viewBox="0 0 23 23" fill="none" xmlns="http://www.w3.org/2000/svg">
<path d="M18.6299 12.4582C18.4191 12.4582 18.1987 12.3911 17.9878 12.3432C17.5609 12.2491 17.1413 12.1242 16.7324 11.9695C16.2878 11.8077 15.7991 11.8161 15.3604 11.9931C14.9216 12.17 14.5638 12.5029 14.3557 12.9278L14.1449 13.3591C13.2115 12.8398 12.3538 12.1949 11.5957 11.4424C10.8432 10.6844 10.1983 9.82664 9.67908 8.89323L10.0816 8.62489C10.5065 8.41686 10.8394 8.05903 11.0163 7.62026C11.1933 7.1815 11.2017 6.69281 11.0399 6.24823C10.8878 5.83846 10.7629 5.41908 10.6662 4.99281C10.6182 4.78198 10.5799 4.56156 10.5512 4.34114C10.4348 3.66611 10.0812 3.05481 9.55413 2.61733C9.02705 2.17985 8.36108 1.94494 7.67616 1.95489H4.80116C4.38815 1.95102 3.97915 2.03617 3.60201 2.20457C3.22487 2.37296 2.88844 2.62064 2.61562 2.93075C2.3428 3.24085 2.14 3.6061 2.02103 4.00162C1.90205 4.39714 1.8697 4.81366 1.92616 5.22281C2.4367 9.23763 4.27027 12.9679 7.13725 15.8245C10.0042 18.6811 13.7412 20.501 17.7578 20.997H18.122C18.8287 20.998 19.511 20.7387 20.0387 20.2686C20.3418 19.9975 20.584 19.6651 20.7492 19.2934C20.9144 18.9217 20.9989 18.5191 20.997 18.1124V15.2374C20.9853 14.5717 20.7429 13.9308 20.3112 13.4239C19.8795 12.9171 19.2852 12.5757 18.6299 12.4582ZM19.1091 18.2082C19.1089 18.3443 19.0798 18.4788 19.0236 18.6027C18.9674 18.7266 18.8855 18.8372 18.7832 18.927C18.6765 19.0199 18.5513 19.0893 18.4159 19.1306C18.2805 19.1719 18.1379 19.1842 17.9974 19.1666C14.4084 18.7064 11.0746 17.0644 8.5221 14.4998C5.96956 11.9351 4.34347 8.59359 3.90033 5.00239C3.88508 4.86202 3.89844 4.72 3.93962 4.58494C3.9808 4.44987 4.04894 4.32455 4.13991 4.21656C4.22972 4.11434 4.34026 4.03241 4.46419 3.97623C4.58812 3.92005 4.72259 3.8909 4.85866 3.89073H7.73366C7.95652 3.88577 8.17414 3.95865 8.34905 4.09684C8.52397 4.23502 8.64524 4.42986 8.692 4.64781C8.73033 4.90975 8.77825 5.1685 8.83575 5.42406C8.94645 5.92924 9.09379 6.42569 9.27658 6.90948L7.93491 7.53239C7.8202 7.58503 7.71701 7.6598 7.63127 7.75242C7.54554 7.84505 7.47894 7.95369 7.43531 8.07212C7.39167 8.19055 7.37186 8.31644 7.37702 8.44254C7.38217 8.56865 7.41218 8.6925 7.46533 8.80698C8.84456 11.7613 11.2194 14.1361 14.1737 15.5153C14.407 15.6112 14.6687 15.6112 14.902 15.5153C15.0215 15.4726 15.1313 15.4065 15.2251 15.3209C15.3189 15.2354 15.3947 15.1321 15.4482 15.017L16.0424 13.6753C16.5378 13.8525 17.0435 13.9997 17.5566 14.1161C17.8121 14.1736 18.0709 14.2216 18.3328 14.2599C18.5508 14.3067 18.7456 14.4279 18.8838 14.6028C19.022 14.7778 19.0949 14.9954 19.0899 15.2182L19.1091 18.2082Z" fill="#232323"/>
</svg>
