<svg width="16" height="16" viewBox="0 0 16 16" fill="none" xmlns="http://www.w3.org/2000/svg">
<path d="M12.8528 6.97266C12.7646 6.0548 12.4402 5.17541 11.9113 4.42015C11.3823 3.66488 10.6667 3.05946 9.8343 2.66285C9.00187 2.26624 8.08091 2.09196 7.16112 2.15697C6.24132 2.22197 5.35403 2.52406 4.58565 3.03381C3.92553 3.47522 3.37137 4.05735 2.96296 4.73838C2.55456 5.41941 2.30206 6.18244 2.2236 6.97266C2.14664 7.7577 2.24538 8.55003 2.51268 9.29216C2.77998 10.0343 3.20913 10.7076 3.76899 11.2633L7.09847 14.5991C7.15687 14.6579 7.22635 14.7047 7.30291 14.7366C7.37946 14.7685 7.46157 14.7849 7.5445 14.7849C7.62743 14.7849 7.70954 14.7685 7.78609 14.7366C7.86265 14.7047 7.93213 14.6579 7.99053 14.5991L11.3074 11.2633C11.8673 10.7076 12.2965 10.0343 12.5638 9.29216C12.8311 8.55003 12.9298 7.7577 12.8528 6.97266ZM10.428 10.3775L7.53822 13.2673L4.64847 10.3775C4.22261 9.95164 3.89639 9.43668 3.69327 8.86969C3.49015 8.30269 3.41517 7.69773 3.47373 7.0983C3.53267 6.48963 3.72612 5.90167 4.0401 5.37692C4.35408 4.85217 4.78075 4.40374 5.28924 4.06407C5.95573 3.62133 6.73808 3.38516 7.53822 3.38516C8.33836 3.38516 9.1207 3.62133 9.78719 4.06407C10.2941 4.40243 10.7199 4.84887 11.0338 5.37132C11.3477 5.89378 11.542 6.47927 11.6027 7.08573C11.6632 7.68719 11.5891 8.29457 11.386 8.8639C11.1828 9.43322 10.8556 9.95025 10.428 10.3775ZM7.53822 4.69227C6.97911 4.69227 6.43255 4.85807 5.96766 5.1687C5.50278 5.47932 5.14044 5.92083 4.92648 6.43738C4.71252 6.95393 4.65654 7.52233 4.76561 8.0707C4.87469 8.61907 5.14393 9.12278 5.53928 9.51813C5.93463 9.91349 6.43834 10.1827 6.98671 10.2918C7.53508 10.4009 8.10348 10.3449 8.62003 10.1309C9.13659 9.91697 9.57809 9.55464 9.88872 9.08975C10.1993 8.62487 10.3651 8.07831 10.3651 7.5192C10.3635 6.76996 10.0651 6.05188 9.53532 5.52209C9.00553 4.9923 8.28745 4.69393 7.53822 4.69227ZM7.53822 9.08971C7.2276 9.08971 6.92396 8.9976 6.66569 8.82503C6.40742 8.65246 6.20612 8.40718 6.08725 8.12021C5.96838 7.83323 5.93728 7.51745 5.99788 7.2128C6.05848 6.90815 6.20806 6.62832 6.4277 6.40868C6.64734 6.18904 6.92718 6.03946 7.23183 5.97886C7.53648 5.91826 7.85225 5.94936 8.13923 6.06823C8.4262 6.1871 8.67148 6.3884 8.84405 6.64667C9.01662 6.90494 9.10873 7.20858 9.10873 7.5192C9.10873 7.93572 8.94327 8.33519 8.64874 8.62972C8.35421 8.92424 7.95474 9.08971 7.53822 9.08971Z" fill="#232323"/>
</svg>
