<svg width="26" height="26" viewBox="0 0 26 26" fill="none" xmlns="http://www.w3.org/2000/svg">
<path d="M16.0574 13.0141C16.725 12.2971 17.1011 11.3569 17.1121 10.3773C17.1121 9.32 16.6921 8.30596 15.9444 7.55831C15.1968 6.81065 14.1827 6.39063 13.1254 6.39063C12.068 6.39063 11.054 6.81065 10.3064 7.55831C9.5587 8.30596 9.13867 9.32 9.13867 10.3773C9.14968 11.3569 9.52577 12.2971 10.1934 13.0141C9.26382 13.4769 8.46391 14.1636 7.86558 15.0123C7.26725 15.861 6.88926 16.8451 6.76563 17.8762C6.73486 18.1559 6.81647 18.4364 6.9925 18.6559C7.16854 18.8755 7.42458 19.0161 7.7043 19.0469C7.98402 19.0776 8.2645 18.996 8.48405 18.82C8.7036 18.644 8.84423 18.3879 8.875 18.1082C9.00086 17.0864 9.49605 16.1458 10.2673 15.4637C11.0385 14.7817 12.0325 14.4052 13.0621 14.4052C14.0917 14.4052 15.0857 14.7817 15.8569 15.4637C16.6282 16.1458 17.1234 17.0864 17.2492 18.1082C17.2786 18.3786 17.4112 18.6273 17.6196 18.8022C17.8279 18.9771 18.0958 19.0648 18.3672 19.0469H18.4832C18.7597 19.0151 19.0124 18.8753 19.1862 18.658C19.3601 18.4406 19.441 18.1634 19.4113 17.8867C19.2969 16.8611 18.9308 15.8797 18.3457 15.0296C17.7606 14.1796 16.9745 13.4872 16.0574 13.0141V13.0141ZM13.0938 12.2547C12.7224 12.2547 12.3595 12.1446 12.0508 11.9383C11.742 11.732 11.5014 11.4388 11.3593 11.0958C11.2172 10.7527 11.18 10.3753 11.2525 10.0111C11.3249 9.64692 11.5037 9.31241 11.7663 9.04986C12.0288 8.78731 12.3633 8.60851 12.7275 8.53607C13.0917 8.46364 13.4691 8.50081 13.8122 8.6429C14.1552 8.785 14.4484 9.02562 14.6547 9.33435C14.861 9.64308 14.9711 10.006 14.9711 10.3773C14.9711 10.8752 14.7733 11.3528 14.4212 11.7048C14.0692 12.0569 13.5917 12.2547 13.0938 12.2547V12.2547ZM20.4766 2.17188H5.71094C4.87178 2.17188 4.06698 2.50523 3.47361 3.09861C2.88023 3.69198 2.54688 4.49678 2.54688 5.33594V20.1016C2.54688 20.9407 2.88023 21.7455 3.47361 22.3389C4.06698 22.9323 4.87178 23.2656 5.71094 23.2656H20.4766C21.3157 23.2656 22.1205 22.9323 22.7139 22.3389C23.3073 21.7455 23.6406 20.9407 23.6406 20.1016V5.33594C23.6406 4.49678 23.3073 3.69198 22.7139 3.09861C22.1205 2.50523 21.3157 2.17188 20.4766 2.17188ZM21.5313 20.1016C21.5313 20.3813 21.4201 20.6495 21.2223 20.8473C21.0245 21.0451 20.7563 21.1563 20.4766 21.1563H5.71094C5.43122 21.1563 5.16295 21.0451 4.96516 20.8473C4.76737 20.6495 4.65625 20.3813 4.65625 20.1016V5.33594C4.65625 5.05622 4.76737 4.78795 4.96516 4.59016C5.16295 4.39237 5.43122 4.28125 5.71094 4.28125H20.4766C20.7563 4.28125 21.0245 4.39237 21.2223 4.59016C21.4201 4.78795 21.5313 5.05622 21.5313 5.33594V20.1016Z" fill="black"/>
</svg>
