<svg width="23" height="23" viewBox="0 0 23 23" fill="none" xmlns="http://www.w3.org/2000/svg">
<path d="M11.4999 1.91675C9.64124 1.92028 7.82367 2.46425 6.26862 3.48241C4.71358 4.50057 3.48818 5.94897 2.74168 7.65119C1.99518 9.35341 1.75981 11.236 2.06422 13.0696C2.36864 14.9032 3.1997 16.6087 4.4562 17.9784C5.3536 18.9512 6.44276 19.7275 7.65505 20.2585C8.86734 20.7895 10.1765 21.0636 11.4999 21.0636C12.8234 21.0636 14.1326 20.7895 15.3448 20.2585C16.5571 19.7275 17.6463 18.9512 18.5437 17.9784C19.8002 16.6087 20.6313 14.9032 20.9357 13.0696C21.2401 11.236 21.0047 9.35341 20.2582 7.65119C19.5117 5.94897 18.2863 4.50057 16.7313 3.48241C15.1762 2.46425 13.3587 1.92028 11.4999 1.91675ZM11.4999 19.1667C9.51472 19.1637 7.60807 18.3908 6.1812 17.0105C6.6144 15.9559 7.35135 15.0539 8.2984 14.4191C9.24544 13.7842 10.3598 13.4453 11.4999 13.4453C12.6401 13.4453 13.7544 13.7842 14.7015 14.4191C15.6485 15.0539 16.3855 15.9559 16.8187 17.0105C15.3918 18.3908 13.4852 19.1637 11.4999 19.1667ZM9.58328 9.58341C9.58328 9.20433 9.69569 8.83377 9.90629 8.51857C10.1169 8.20338 10.4162 7.95771 10.7665 7.81265C11.1167 7.66758 11.5021 7.62962 11.8739 7.70358C12.2457 7.77753 12.5872 7.96008 12.8552 8.22813C13.1233 8.49618 13.3058 8.83769 13.3798 9.20949C13.4537 9.58129 13.4158 9.96667 13.2707 10.3169C13.1256 10.6671 12.88 10.9665 12.5648 11.1771C12.2496 11.3877 11.879 11.5001 11.4999 11.5001C10.9916 11.5001 10.5041 11.2981 10.1447 10.9387C9.78521 10.5793 9.58328 10.0917 9.58328 9.58341ZM18.122 15.3334C17.2658 13.8688 15.948 12.7296 14.3749 12.0942C14.8629 11.541 15.1808 10.8586 15.2906 10.1291C15.4004 9.39962 15.2973 8.65394 14.9938 7.98156C14.6903 7.30918 14.1992 6.73866 13.5794 6.33846C12.9597 5.93827 12.2377 5.7254 11.4999 5.7254C10.7622 5.7254 10.0402 5.93827 9.42045 6.33846C8.80072 6.73866 8.30962 7.30918 8.0061 7.98156C7.70258 8.65394 7.59952 9.39962 7.70929 10.1291C7.81906 10.8586 8.13699 11.541 8.62495 12.0942C7.05194 12.7296 5.7341 13.8688 4.87786 15.3334C4.19547 14.1711 3.83493 12.8479 3.83328 11.5001C3.83328 9.46675 4.64101 7.51671 6.07879 6.07893C7.51657 4.64115 9.46662 3.83341 11.4999 3.83341C13.5333 3.83341 15.4833 4.64115 16.9211 6.07893C18.3589 7.51671 19.1666 9.46675 19.1666 11.5001C19.165 12.8479 18.8044 14.1711 18.122 15.3334Z" fill="#232323"/>
</svg>
